<?xml version="1.0" encoding="UTF-8"?>
<svg width="200px" height="200px" viewBox="0 0 200 200" version="1.1" xmlns="http://www.w3.org/2000/svg" xmlns:xlink="http://www.w3.org/1999/xlink">
    <!-- Generator: Sketch 50 (54983) - http://www.bohemiancoding.com/sketch -->
    <title>instagram-2</title>
    <desc>Created with Sketch.</desc>
    <defs></defs>
    <g id="Page-1" stroke="none" stroke-width="1" fill="none" fill-rule="evenodd">
        <g id="Artboard" transform="translate(-230.000000, -230.000000)" fill="#EBA724" fill-rule="nonzero">
            <g id="instagram-2" transform="translate(230.000000, 230.000000)">
                <path d="M100,0 C154.961832,0 200,45.0381679 200,100 C200,154.961832 154.961832,200 100,200 C45.0381679,200 0,154.961832 0,100 C0,45.0381679 45.0381679,0 100,0 Z M151.631065,78.844116 C151.23285,70.4347462 149.312047,62.985778 143.151422,56.8485778 C137.014222,50.7113776 129.565254,48.7905745 121.155884,48.3689347 C112.488846,47.8770218 86.5111545,47.8770218 77.844116,48.3689347 C69.4581707,48.76715 62.0092025,50.6879532 55.8485778,56.8251534 C49.6879532,62.9623536 47.7905745,70.4113218 47.3689347,78.8206916 C46.8770218,87.4877301 46.8770218,113.465421 47.3689347,122.13246 C47.76715,130.541829 49.6879532,137.990798 55.8485778,144.127998 C62.0092025,150.265198 69.4347462,152.186001 77.844116,152.607641 C86.5111545,153.099554 112.488846,153.099554 121.155884,152.607641 C129.565254,152.209426 137.014222,150.288622 143.151422,144.127998 C149.288622,137.990798 151.209426,130.541829 151.631065,122.13246 C152.122978,113.465421 152.122978,87.5111545 151.631065,78.844116 Z M133.805075,72.4726715 C133.805075,75.9629113 130.994144,78.7504183 127.527328,78.7504183 C124.037089,78.7504183 121.249582,75.9394869 121.249582,72.4726715 C121.249582,69.0058561 124.060513,66.1949247 127.527328,66.1949247 C130.994144,66.1949247 133.805075,69.0058561 133.805075,72.4726715 Z M99.5117122,73.5736196 C114.409649,73.5736196 126.42638,85.5903514 126.42638,100.488288 C126.42638,115.386224 114.409649,127.402956 99.5117122,127.402956 C84.6137758,127.402956 72.5970441,115.386224 72.5970441,100.488288 C72.5970441,85.5903514 84.6137758,73.5736196 99.5117122,73.5736196 Z M99.5117122,117.986336 C109.139152,117.986336 117.00976,110.139152 117.00976,100.488288 C117.00976,90.8374233 109.162577,82.9902398 99.5117122,82.9902398 C89.8608477,82.9902398 82.0136642,90.8374233 82.0136642,100.488288 C82.0136642,110.139152 89.8842722,117.986336 99.5117122,117.986336 Z" id="Combined-Shape"></path>
            </g>
        </g>
    </g>
</svg>