<?xml version="1.0" encoding="UTF-8"?>
<svg width="200px" height="200px" viewBox="0 0 200 200" version="1.1" xmlns="http://www.w3.org/2000/svg" xmlns:xlink="http://www.w3.org/1999/xlink">
    <!-- Generator: Sketch 50 (54983) - http://www.bohemiancoding.com/sketch -->
    <title>twitter</title>
    <desc>Created with Sketch.</desc>
    <defs></defs>
    <g id="Page-1" stroke="none" stroke-width="1" fill="none" fill-rule="evenodd">
        <g id="Artboard" transform="translate(-890.000000, -10.000000)" fill="#EBA724" fill-rule="nonzero">
            <g id="twitter" transform="translate(890.000000, 10.000000)">
                <path d="M100,0 C154.961832,0 200,45.0381679 200,100 C200,154.961832 154.961832,200 100,200 C45.0381679,200 0,154.961832 0,100 C0,45.0381679 45.0381679,0 100,0 Z M142.458879,84.8448598 C146.538318,81.5813084 150.617757,78.317757 152.249533,71.7906542 C148.985981,73.4224299 144.090654,74.2383178 140.011215,75.0542056 C144.906542,72.6065421 148.170093,67.711215 149.801869,62.8158879 C145.72243,66.0794393 140.827103,67.711215 135.931776,68.5271028 C131.852336,64.4476636 126.141121,62 119.614019,62 C107.375701,62 97.5850467,71.7906542 97.5850467,84.028972 C97.5850467,85.6607477 98.4009346,87.2925234 98.4009346,88.9242991 C80.4514019,88.1084112 64.1336449,79.1336449 53.5271028,66.0794393 C51.0794393,69.3429907 50.2635514,73.4224299 50.2635514,77.5018692 C50.2635514,84.8448598 54.3429907,91.3719626 60.0542056,95.4514019 C56.7906542,95.4514019 53.5271028,94.635514 50.2635514,93.0037383 C50.2635514,103.61028 58.4224299,112.585047 68.2130841,114.216822 C66.5813084,115.03271 64.1336449,115.03271 62.5018692,115.03271 C60.8700935,115.03271 60.0542056,115.03271 58.4224299,115.03271 C60.8700935,124.007477 69.028972,130.534579 78.8196262,130.534579 C71.4766355,136.245794 62.5018692,139.509346 51.8953271,139.509346 C50.2635514,139.509346 48.6317757,139.509346 47,139.509346 C56.7906542,146.036449 68.2130841,149.3 80.4514019,149.3 C120.429907,149.3 142.458879,116.664486 142.458879,87.2925234 C142.458879,86.4766355 142.458879,85.6607477 142.458879,84.8448598 Z" id="Combined-Shape"></path>
            </g>
        </g>
    </g>
</svg>