<?xml version="1.0" encoding="UTF-8"?>
<svg width="200px" height="200px" viewBox="0 0 200 200" version="1.1" xmlns="http://www.w3.org/2000/svg" xmlns:xlink="http://www.w3.org/1999/xlink">
    <!-- Generator: Sketch 50 (54983) - http://www.bohemiancoding.com/sketch -->
    <title>vimeo</title>
    <desc>Created with Sketch.</desc>
    <defs></defs>
    <g id="Page-1" stroke="none" stroke-width="1" fill="none" fill-rule="evenodd">
        <g id="Artboard" transform="translate(-10.000000, -10.000000)" fill="#EBA724" fill-rule="nonzero">
            <g id="vimeo" transform="translate(10.000000, 10.000000)">
                <path d="M100,0 C154.961832,0 200,45.0381679 200,100 C200,154.961832 154.961832,200 100,200 C45.0381679,200 0,154.961832 0,100 C0,45.0381679 45.0381679,0 100,0 Z M151.552656,81.3312224 C157.521471,46.3710198 109.770951,54.0452106 103.802135,83.0365981 C116.592453,75.3624073 123.413956,86.4473496 116.592453,98.3849797 C110.623638,111.175298 104.654823,118.849489 101.244072,118.849489 C97.8333204,118.849489 95.2752568,111.175298 91.8645053,96.679604 C88.4537538,82.1839102 88.4537538,54.8978984 73.1053722,58.3086499 C58.6096785,60.8667135 39.8505454,83.889286 39.8505454,83.889286 L44.1139847,89.858101 C44.1139847,89.858101 53.4935512,83.0365981 56.9043027,86.4473496 C59.4623663,89.858101 71.3999965,134.19787 75.6634358,142.724749 C79.0741873,150.39894 89.3064417,159.778506 99.5386961,152.957003 C110.623638,146.1355 145.583841,116.291425 151.552656,81.3312224 Z" id="Combined-Shape"></path>
            </g>
        </g>
    </g>
</svg>