<?xml version="1.0" encoding="UTF-8"?>
<svg width="200px" height="200px" viewBox="0 0 200 200" version="1.1" xmlns="http://www.w3.org/2000/svg" xmlns:xlink="http://www.w3.org/1999/xlink">
    <!-- Generator: Sketch 50 (54983) - http://www.bohemiancoding.com/sketch -->
    <title>youtube</title>
    <desc>Created with Sketch.</desc>
    <defs></defs>
    <g id="Page-1" stroke="none" stroke-width="1" fill="none" fill-rule="evenodd">
        <g id="Artboard" transform="translate(-450.000000, -10.000000)" fill="#EBA724" fill-rule="nonzero">
            <g id="youtube" transform="translate(450.000000, 10.000000)">
                <path d="M100,0 C154.961832,0 200,45.0381679 200,100 C200,154.961832 154.961832,200 100,200 C45.0381679,200 0,154.961832 0,100 C0,45.0381679 45.0381679,0 100,0 Z M44.5064342,100.221404 C44.5064342,100.221404 44.3636271,100.221404 44.3636271,100.221404 C44.5064342,104.362808 44.7920483,108.361405 44.9348553,112.50281 C45.0776624,118.215092 46.0773117,123.784567 48.0766105,129.068428 C49.7902951,133.781061 52.9320502,137.065623 58.2159111,137.636851 C62.3573156,138.065272 66.4987201,138.208079 70.6401246,138.493693 C75.7811785,138.6365 80.9222323,138.922114 86.0632862,138.922114 C92.9180246,138.922114 99.7727631,138.6365 106.627502,138.6365 C112.339784,138.6365 118.052066,138.779307 123.764348,138.6365 C129.619437,138.493693 135.617333,138.208079 141.472422,137.779658 C144.185756,137.636851 146.613476,136.637202 148.755582,134.495096 C151.040495,132.067376 152.182951,129.211235 153.039793,126.212287 C154.753478,120.642812 155.181899,114.787723 155.324706,108.932634 C155.467513,102.077895 155.181899,95.2231567 155.039092,88.3684183 C154.896285,82.084908 153.896636,75.8013977 151.468916,69.9463086 C149.898038,66.0905182 147.327511,63.2343772 143.0433,62.5203419 C140.044352,62.0919208 136.902596,61.9491137 133.760841,61.8063067 C129.191016,61.6634996 124.478383,61.3778855 119.908557,61.3778855 C102.200483,61.5206926 84.4924086,61.6634996 66.9271413,61.8063067 C64.3566143,61.8063067 61.7860874,61.9491137 59.2155605,62.2347278 C57.5018759,62.3775349 55.7881912,62.805956 54.2173137,63.5199913 C50.5043303,65.0908689 49.0762598,68.5182381 47.6481893,71.9456073 C45.0776624,78.2291176 45.0776624,85.0838561 44.5064342,91.6529804 C44.3636271,94.3663144 44.5064342,97.2224554 44.5064342,100.221404 Z M88.6338131,78.9431529 C99.487149,85.9406984 110.054871,92.7954368 120.908207,99.9357894 C109.912064,106.933335 99.487149,113.788073 88.6338131,120.785619 C88.6338131,106.504914 88.6338131,92.9382439 88.6338131,78.9431529 Z" id="Combined-Shape"></path>
            </g>
        </g>
    </g>
</svg>